<?xml version="1.0" standalone="no"?>
<!DOCTYPE svg PUBLIC "-//W3C//DTD SVG 20010904//EN"
 "http://www.w3.org/TR/2001/REC-SVG-20010904/DTD/svg10.dtd">
<svg version="1.0" xmlns="http://www.w3.org/2000/svg"
 width="877.000000pt" height="864.000000pt" viewBox="0 0 877.000000 864.000000"
 preserveAspectRatio="xMidYMid meet">

<g transform="translate(0.000000,864.000000) scale(0.100000,-0.100000)"
fill="#000000" stroke="none">
<path d="M4145 8043 c-353 -28 -617 -80 -920 -180 -712 -234 -1351 -694 -1803
-1296 -350 -466 -571 -966 -686 -1552 -93 -476 -81 -1045 32 -1497 16 -63 35
-123 41 -134 11 -17 11 -17 6 6 -17 66 -17 66 -6 50 6 -8 11 -23 11 -32 0 -10
5 -18 10 -18 13 0 13 0 -5 50 -8 23 -15 54 -16 69 l-1 26 -9 -25 c-7 -20 -8
-16 -5 19 3 24 -4 87 -15 141 -63 329 -69 824 -13 1210 64 443 243 934 485
1335 524 865 1374 1478 2349 1694 290 64 483 85 800 85 326 1 606 -30 865 -96
44 -11 100 -23 125 -28 25 -5 58 -13 74 -19 16 -7 30 -10 32 -8 4 4 -29 21
-60 31 -10 4 -17 9 -14 12 3 3 30 -4 59 -16 30 -11 63 -20 74 -19 11 0 -25 16
-80 35 -55 19 -108 33 -118 30 -10 -2 -14 0 -11 6 5 8 -10 9 -47 5 -32 -4 -46
-3 -34 2 17 7 14 10 -20 19 -230 64 -572 103 -870 100 -104 -1 -208 -3 -230
-5z m-3368 -4475 c-3 -8 -6 -5 -6 6 -1 11 2 17 5 13 3 -3 4 -12 1 -19z"/>
<path d="M5560 7830 c-8 -5 -10 -10 -5 -10 6 0 17 5 25 10 8 5 11 10 5 10 -5
0 -17 -5 -25 -10z"/>
<path d="M5660 7790 c8 -5 20 -10 25 -10 6 0 3 5 -5 10 -8 5 -19 10 -25 10 -5
0 -3 -5 5 -10z"/>
<path d="M6320 7776 c0 -3 9 -10 20 -16 11 -6 20 -8 20 -6 0 3 -9 10 -20 16
-11 6 -20 8 -20 6z"/>
<path d="M6384 7738 c10 -7 50 -33 90 -57 238 -149 464 -329 682 -546 325
-323 558 -643 753 -1034 170 -340 268 -632 361 -1071 40 -191 64 -515 57 -785
-8 -318 -42 -580 -108 -839 -17 -67 -35 -139 -40 -161 -9 -37 -47 -152 -89
-270 -97 -270 -299 -649 -473 -885 -116 -158 -160 -212 -283 -349 -283 -314
-577 -552 -969 -784 -91 -54 -347 -179 -460 -225 -318 -129 -622 -211 -970
-261 -506 -73 -1098 -42 -1545 80 -41 11 -82 22 -90 24 -42 8 -208 62 -310
100 -568 212 -1024 506 -1431 922 -614 627 -993 1443 -1090 2343 -16 150 -16
632 0 780 39 359 124 715 247 1039 24 63 42 116 40 118 -2 2 -23 -43 -46 -99
-24 -57 -51 -121 -60 -143 -10 -22 -20 -49 -23 -60 -4 -19 -5 -19 -6 1 0 12
21 88 48 170 27 82 48 150 47 152 -2 1 -27 -55 -56 -125 -133 -324 -220 -664
-266 -1043 -25 -201 -25 -637 -1 -840 31 -259 74 -471 142 -695 317 -1054
1046 -1918 2045 -2424 446 -226 869 -353 1390 -418 204 -25 686 -25 890 0 312
39 554 92 825 181 1212 400 2156 1343 2544 2541 120 371 177 701 188 1100 26
927 -284 1845 -874 2585 -137 172 -439 475 -613 614 -140 112 -400 290 -505
345 -33 18 -52 26 -41 19z"/>
<path d="M4355 6062 c-16 -10 -79 -44 -140 -76 -60 -32 -153 -82 -205 -111
-52 -29 -138 -75 -190 -102 -52 -28 -129 -68 -170 -90 -97 -52 -526 -282 -655
-350 -55 -29 -133 -70 -172 -90 l-73 -37 0 -876 0 -875 83 -44 c45 -24 143
-75 217 -114 275 -144 523 -277 640 -342 41 -23 138 -74 215 -115 77 -40 218
-115 314 -168 l174 -96 66 34 c36 19 152 80 256 136 629 335 832 443 928 495
59 33 110 59 112 59 3 0 66 34 140 75 75 41 143 75 151 75 9 0 65 -25 124 -55
l109 -54 6 32 c4 18 13 43 20 57 7 14 16 40 20 59 6 27 4 33 -6 29 -11 -4 -13
9 -11 66 2 39 8 75 13 81 5 5 9 40 9 77 0 54 -3 68 -15 68 -11 0 -15 11 -15
40 0 22 -4 40 -10 40 -6 0 -10 67 -10 180 0 113 -4 180 -10 180 -6 0 -10 55
-10 145 0 111 -3 146 -14 152 -7 4 -16 33 -19 63 -3 30 -3 45 1 32 13 -43 27
-22 30 44 3 69 8 79 57 105 17 9 29 21 28 26 -1 6 4 14 12 17 10 4 20 -5 29
-27 14 -31 15 -31 10 28 -3 33 -10 73 -15 89 -12 38 -12 69 1 61 6 -3 10 -15
10 -26 0 -10 5 -19 10 -19 6 0 10 -6 10 -12 1 -21 37 -92 41 -80 2 6 26 12 52
13 38 2 53 8 69 28 13 17 22 22 25 14 6 -18 41 -16 60 2 13 13 13 21 3 45 -7
16 -10 36 -7 44 3 8 3 17 -1 20 -3 4 -7 16 -9 27 -5 33 30 19 42 -16 5 -17 12
-32 16 -35 3 -3 9 -17 13 -32 8 -35 26 -37 26 -3 0 20 5 25 24 25 13 0 50 16
82 35 32 19 63 35 69 35 9 0 8 15 -1 58 -40 177 -76 272 -148 389 l-38 61
-126 -65 c-70 -36 -154 -80 -187 -98 -33 -18 -130 -69 -215 -113 l-155 -81
-70 38 c-38 20 -221 117 -405 215 -184 98 -366 195 -405 216 -38 21 -135 73
-215 115 -80 43 -172 92 -205 110 -33 17 -123 66 -201 108 -78 43 -145 77
-150 77 -5 0 -22 -8 -39 -18z m149 -286 c34 -18 111 -59 171 -91 61 -32 138
-73 172 -91 76 -42 288 -154 623 -331 140 -74 274 -146 298 -159 l42 -25 0
-749 0 -749 -42 -24 c-24 -13 -135 -73 -248 -132 -113 -60 -223 -118 -245
-130 -22 -12 -94 -50 -160 -85 -66 -34 -181 -95 -255 -135 -74 -40 -175 -94
-225 -120 -49 -26 -123 -66 -164 -88 -72 -40 -74 -40 -105 -24 -17 9 -123 65
-236 125 -113 60 -268 142 -345 182 -77 40 -144 76 -150 80 -5 4 -86 47 -180
95 -93 48 -174 91 -180 95 -5 4 -74 40 -152 80 l-143 72 0 753 0 753 93 50
c50 27 137 73 192 102 55 29 127 67 160 85 33 18 105 56 160 85 126 67 230
122 320 170 39 20 124 66 190 101 66 34 160 84 209 110 100 53 94 53 200 -5z
m1636 -973 c0 -13 6 -34 13 -46 14 -22 36 -113 57 -232 21 -120 24 -283 6
-420 -10 -71 -22 -148 -28 -170 -7 -22 -11 -45 -9 -52 1 -6 -4 -15 -10 -19 -8
-5 -10 6 -5 37 34 248 35 495 1 693 -13 81 -31 171 -39 202 -12 47 -12 53 0
43 8 -6 14 -22 14 -36z m60 -1021 c0 -25 -25 -48 -35 -32 -4 6 -2 17 4 24 9
11 8 18 -4 30 -9 9 -13 21 -10 27 10 14 45 -24 45 -49z"/>
<path d="M5790 6070 c8 -6 24 -15 35 -21 16 -8 15 -6 -4 10 -13 12 -28 21 -35
21 -6 0 -4 -5 4 -10z"/>
<path d="M5860 6040 c-12 -8 -10 -10 8 -10 13 0 20 4 17 10 -7 12 -6 12 -25 0z"/>
<path d="M5900 6015 c0 -8 4 -15 10 -15 5 0 7 7 4 15 -4 8 -8 15 -10 15 -2 0
-4 -7 -4 -15z"/>
<path d="M5940 5989 c33 -22 70 -39 70 -32 0 10 -57 43 -73 43 -7 0 -6 -5 3
-11z"/>
<path d="M6054 5925 c11 -8 27 -15 35 -15 11 0 10 4 -5 15 -10 8 -26 14 -34
14 -11 0 -10 -3 4 -14z"/>
<path d="M6225 5851 c-6 -11 13 -26 22 -17 4 3 1 6 -6 6 -7 0 -9 5 -6 10 3 6
4 10 1 10 -3 0 -7 -4 -11 -9z"/>
<path d="M6265 5820 c-3 -5 1 -10 9 -10 8 0 18 5 21 10 3 6 -1 10 -9 10 -8 0
-18 -4 -21 -10z"/>
<path d="M6307 5803 c-8 -7 33 -32 168 -101 49 -25 106 -55 125 -67 19 -11 52
-28 73 -38 l39 -17 -23 32 c-36 51 -61 69 -91 65 -22 -3 -25 -1 -17 10 9 10 8
13 -4 13 -8 0 -17 -6 -20 -12 -2 -7 -8 -10 -12 -6 -5 5 2 17 14 27 l22 19 -34
-2 c-19 -2 -39 -6 -46 -10 -6 -4 -11 -1 -11 9 0 11 -8 15 -27 13 -35 -2 -105
38 -77 44 17 3 16 5 -4 10 -12 3 -20 2 -16 -3 3 -5 1 -9 -4 -9 -6 0 -12 7 -16
15 -6 15 -28 20 -39 8z m348 -163 c3 -5 -1 -10 -10 -10 -9 0 -13 5 -10 10 3 6
8 10 10 10 2 0 7 -4 10 -10z"/>
<path d="M6410 5770 c0 -5 7 -10 15 -10 8 0 15 5 15 10 0 6 -7 10 -15 10 -8 0
-15 -4 -15 -10z"/>
<path d="M6745 5630 c3 -5 8 -10 11 -10 2 0 4 5 4 10 0 6 -5 10 -11 10 -5 0
-7 -4 -4 -10z"/>
<path d="M6776 5591 c-7 -11 3 -41 20 -61 7 -8 12 -19 12 -23 0 -14 23 -70 78
-185 30 -62 54 -115 54 -118 0 -14 33 -74 41 -74 5 0 9 15 9 34 0 21 6 36 15
40 11 4 15 22 15 76 0 56 -3 70 -15 70 -11 0 -15 12 -15 46 0 42 -2 46 -35 60
-19 8 -34 18 -34 22 5 30 -3 44 -20 39 -12 -3 -22 1 -25 9 -3 8 -13 14 -21 14
-9 0 -13 5 -10 10 3 6 -6 15 -20 20 -14 5 -23 14 -20 20 3 5 -1 10 -9 10 -8 0
-17 -4 -20 -9z"/>
<path d="M7952 5155 c0 -11 4 -31 8 -45 6 -20 8 -21 8 -5 0 11 -4 31 -8 45 -6
20 -8 21 -8 5z"/>
<path d="M8017 4765 c3 -22 7 -42 9 -44 8 -9 2 45 -6 64 -7 14 -8 8 -3 -20z"/>
<path d="M6390 4754 c0 -8 5 -12 10 -9 6 4 8 11 5 16 -9 14 -15 11 -15 -7z"/>
<path d="M8041 4564 c0 -11 3 -14 6 -6 3 7 2 16 -1 19 -3 4 -6 -2 -5 -13z"/>
<path d="M8020 3923 c-3 -29 -1 -48 3 -44 5 5 7 28 5 52 l-3 44 -5 -52z"/>
<path d="M6330 3580 c0 -5 5 -10 10 -10 6 0 10 5 10 10 0 6 -4 10 -10 10 -5 0
-10 -4 -10 -10z"/>
<path d="M6405 3530 c-3 -5 -1 -10 4 -10 6 0 11 5 11 10 0 6 -2 10 -4 10 -3 0
-8 -4 -11 -10z"/>
<path d="M6378 3485 c-2 -19 0 -35 4 -35 4 0 8 16 8 35 0 19 -2 35 -4 35 -2 0
-6 -16 -8 -35z"/>
<path d="M6350 3426 c0 -9 -11 -32 -25 -50 -25 -33 -32 -56 -16 -56 4 0 53
-25 108 -55 56 -30 106 -55 112 -55 6 0 14 18 17 40 4 22 11 43 15 46 14 9 10
44 -5 44 -8 0 -16 7 -20 15 -3 9 -19 15 -41 15 -24 0 -45 8 -63 25 -15 14 -34
25 -42 25 -9 0 -21 5 -28 12 -9 9 -12 8 -12 -6z"/>
<path d="M7921 3393 c-1 -6 -4 -20 -7 -30 -5 -17 -5 -17 6 0 6 10 9 23 6 30
-3 9 -5 9 -5 0z"/>
<path d="M830 3366 c0 -8 5 -18 10 -21 6 -3 10 1 10 9 0 8 -4 18 -10 21 -5 3
-10 -1 -10 -9z"/>
<path d="M6624 3305 c-4 -11 -10 -22 -13 -25 -9 -7 -61 -78 -61 -82 0 -2 38
-24 85 -48 47 -25 83 -49 82 -54 -2 -5 -54 -35 -117 -68 -140 -72 -259 -135
-590 -310 -140 -74 -318 -168 -395 -208 -77 -40 -144 -76 -150 -80 -5 -4 -77
-42 -160 -85 -82 -43 -172 -90 -200 -105 -63 -35 -178 -95 -375 -198 -85 -44
-196 -103 -245 -130 -50 -28 -94 -47 -100 -42 -5 4 -77 43 -160 85 -82 43
-181 94 -220 115 -156 83 -248 131 -400 210 -209 108 -492 258 -530 280 -16 9
-84 46 -150 80 -66 34 -147 77 -180 95 -101 54 -375 195 -381 195 -3 0 4 -10
16 -22 21 -23 26 -38 12 -38 -14 0 -42 35 -42 52 0 8 -11 20 -25 26 -23 11
-36 0 -16 -12 5 -3 12 -22 15 -41 4 -21 13 -35 21 -35 8 0 15 -5 15 -11 0 -6
13 -28 30 -49 16 -21 30 -41 30 -45 0 -12 78 -84 84 -78 7 7 -15 53 -26 53 -4
0 -8 6 -8 14 0 8 -7 16 -15 20 -8 3 -15 10 -15 17 0 6 -9 22 -20 36 -24 31
-25 43 -5 43 8 0 15 -7 15 -15 0 -18 206 -228 233 -238 9 -3 16 -12 15 -19 -2
-8 9 -14 24 -16 18 -2 25 -8 22 -17 -6 -14 29 -30 45 -20 5 3 12 1 16 -5 3 -5
-2 -10 -12 -10 -15 0 -16 -2 -3 -10 8 -5 27 -10 42 -10 15 0 33 -9 41 -20 8
-11 28 -23 45 -26 17 -3 32 -14 35 -24 3 -11 18 -20 41 -24 23 -4 36 -13 36
-22 0 -9 9 -18 20 -21 11 -3 17 -9 15 -14 -3 -4 13 -13 36 -19 26 -7 38 -15
30 -19 -7 -5 5 -13 31 -21 48 -15 128 -66 128 -80 0 -6 7 -10 15 -10 8 0 15
-4 15 -10 0 -5 9 -10 20 -10 11 0 20 -4 20 -9 0 -5 24 -12 53 -15 51 -7 51 -8
27 -21 -24 -14 -24 -14 -3 -15 27 0 40 -19 22 -32 -10 -7 -8 -8 8 -3 22 6 123
-32 123 -47 0 -5 5 -6 10 -3 6 3 10 0 10 -9 0 -8 13 -17 30 -21 16 -4 32 -11
35 -16 4 -5 16 -9 29 -9 12 0 26 -4 32 -9 14 -13 213 -71 245 -71 15 0 30 -4
34 -9 7 -12 -79 -26 -102 -16 -10 3 -45 8 -78 10 -53 2 -56 2 -25 -7 19 -5 48
-16 63 -24 16 -8 36 -14 45 -14 14 0 14 -2 3 -9 -9 -6 2 -14 39 -26 54 -18 80
-37 100 -75 6 -11 16 -17 22 -14 7 5 9 1 5 -9 -5 -14 0 -17 33 -17 42 0 80
-26 80 -55 0 -10 10 -15 28 -15 21 0 24 -2 12 -10 -16 -10 -14 -11 40 -16 110
-9 284 -10 415 -2 83 5 157 10 165 10 8 0 20 4 25 9 6 4 29 12 50 18 22 5 69
17 104 26 35 8 78 22 95 29 17 8 58 22 91 31 33 10 74 23 90 30 171 72 235
101 235 107 0 5 7 8 15 8 18 0 111 49 139 73 11 9 28 17 38 17 10 0 18 4 18 9
0 5 12 14 28 20 23 9 131 80 168 110 5 4 20 13 31 20 12 6 28 17 36 25 8 8 28
23 44 33 17 10 53 38 81 63 73 65 103 90 108 90 2 0 21 18 43 40 39 40 70 57
36 20 -10 -11 -15 -20 -12 -20 13 0 -102 -118 -207 -214 -53 -48 -65 -64 -53
-69 9 -3 23 0 31 8 8 8 29 15 46 15 30 0 42 7 80 44 10 10 23 15 29 12 15 -10
53 28 49 49 -2 10 3 20 10 22 8 3 12 -5 12 -24 0 -28 0 -28 45 20 25 26 53 47
63 47 10 0 23 5 30 12 8 8 12 8 12 1 0 -6 6 -13 14 -16 8 -3 13 1 12 11 0 9 9
21 22 27 12 5 22 13 22 17 0 5 8 8 18 8 20 0 62 39 62 58 0 7 5 12 10 12 20 0
9 -29 -17 -48 -16 -11 -24 -24 -20 -28 11 -11 40 8 54 37 7 13 21 27 33 31 11
4 23 15 27 25 4 10 16 27 28 38 12 11 32 36 45 55 13 19 33 44 44 56 19 18 72
94 135 194 16 24 39 70 77 155 22 48 22 109 0 150 -9 17 -16 23 -16 15 -1 -8
-7 -1 -15 15 -7 17 -14 26 -14 20 -1 -5 -5 -4 -10 4 -8 13 -14 13 -38 1 -25
-12 -43 -14 -87 -11 -26 2 -64 45 -67 76 -2 17 3 41 10 53 16 30 7 40 -17 19
-20 -18 -33 -12 -51 21 -8 15 -21 22 -41 22 -15 0 -30 6 -33 13 -3 7 -8 5 -13
-8z m-2591 -1442 c-7 -2 -21 -2 -30 0 -10 3 -4 5 12 5 17 0 24 -2 18 -5z"/>
<path d="M825 3299 c-4 -6 -5 -12 -2 -15 2 -3 7 2 10 11 7 17 1 20 -8 4z"/>
<path d="M846 3285 c-3 -9 -6 -22 -5 -28 0 -7 5 -1 10 12 5 13 8 26 5 28 -2 2
-6 -3 -10 -12z"/>
<path d="M861 3184 c0 -11 3 -14 6 -6 3 7 2 16 -1 19 -3 4 -6 -2 -5 -13z"/>
<path d="M6820 3192 c0 -5 14 -7 30 -4 17 2 30 6 30 8 0 2 -13 4 -30 4 -16 0
-30 -4 -30 -8z"/>
<path d="M6951 3184 c0 -11 3 -14 6 -6 3 7 2 16 -1 19 -3 4 -6 -2 -5 -13z"/>
<path d="M6840 3160 c0 -5 4 -10 9 -10 6 0 13 5 16 10 3 6 -1 10 -9 10 -9 0
-16 -4 -16 -10z"/>
<path d="M7113 2895 c0 -22 2 -30 4 -17 2 12 2 30 0 40 -3 9 -5 -1 -4 -23z"/>
<path d="M7736 2875 c-3 -8 -1 -15 4 -15 6 0 10 7 10 15 0 8 -2 15 -4 15 -2 0
-6 -7 -10 -15z"/>
<path d="M7055 2867 c-16 -19 -65 -121 -65 -135 0 -7 -4 -11 -9 -8 -12 8 -41
-38 -41 -64 0 -11 -7 -20 -15 -20 -8 0 -15 -9 -15 -20 0 -10 -8 -27 -19 -37
-35 -34 -55 -73 -43 -85 12 -12 42 11 42 31 0 6 16 11 35 11 24 0 35 5 35 15
0 8 6 15 13 15 7 0 12 13 12 32 0 18 3 34 8 36 16 5 47 43 47 57 0 8 5 15 10
15 6 0 10 32 10 75 0 43 4 75 10 75 6 0 10 5 10 10 0 13 -13 12 -25 -3z m-15
-123 c0 -8 -4 -12 -10 -9 -5 3 -10 10 -10 16 0 5 5 9 10 9 6 0 10 -7 10 -16z
m-90 -158 c0 -8 -4 -17 -9 -21 -12 -7 -24 12 -16 25 9 15 25 12 25 -4z"/>
<path d="M7630 2670 c0 -5 5 -10 11 -10 5 0 7 5 4 10 -3 6 -8 10 -11 10 -2 0
-4 -4 -4 -10z"/>
<path d="M7042 2595 c0 -16 2 -22 5 -12 2 9 2 23 0 30 -3 6 -5 -1 -5 -18z"/>
<path d="M6800 2460 c0 -5 5 -10 10 -10 6 0 10 5 10 10 0 6 -4 10 -10 10 -5 0
-10 -4 -10 -10z"/>
<path d="M6445 2200 c-3 -6 1 -7 9 -4 18 7 21 14 7 14 -6 0 -13 -4 -16 -10z"/>
<path d="M5965 2039 c-22 -16 -41 -34 -43 -39 -2 -6 -11 -10 -19 -10 -9 0 -14
-3 -10 -6 3 -3 26 2 51 11 32 12 46 23 46 36 0 11 7 19 15 19 8 0 15 5 15 10
0 16 -12 11 -55 -21z"/>
<path d="M5815 1938 c-20 -12 -46 -41 -41 -46 2 -1 18 11 36 28 35 33 36 36 5
18z"/>
<path d="M7150 1939 c0 -5 5 -7 10 -4 6 3 10 8 10 11 0 2 -4 4 -10 4 -5 0 -10
-5 -10 -11z"/>
<path d="M5716 1855 c4 -8 11 -15 16 -15 6 0 5 6 -2 15 -7 8 -14 15 -16 15 -2
0 -1 -7 2 -15z"/>
<path d="M5644 1834 c-17 -14 -17 -15 -1 -10 10 3 25 6 33 6 8 0 14 5 14 10 0
15 -24 12 -46 -6z"/>
<path d="M5542 1788 c-36 -22 -36 -38 1 -20 12 6 31 12 41 14 25 4 33 28 9 27
-10 0 -33 -10 -51 -21z"/>
<path d="M5350 1700 c0 -5 7 -7 15 -4 8 4 15 8 15 10 0 2 -7 4 -15 4 -8 0 -15
-4 -15 -10z"/>
<path d="M5305 1690 c-3 -5 1 -10 10 -10 9 0 13 5 10 10 -3 6 -8 10 -10 10 -2
0 -7 -4 -10 -10z"/>
<path d="M5245 1678 c-16 -6 -39 -14 -50 -19 -55 -23 -326 -76 -440 -85 -44
-3 -85 -10 -91 -15 -6 -5 -87 -12 -180 -17 -93 -4 -150 -8 -126 -10 23 -2 42
-7 42 -12 0 -5 9 -12 21 -15 11 -4 18 -12 16 -19 -3 -6 4 -13 14 -13 10 -1 19
3 19 10 0 8 3 8 12 -1 7 -7 22 -12 35 -12 12 0 26 -7 31 -16 8 -15 30 -16 183
-12 120 3 174 8 177 16 2 7 10 12 18 12 8 0 17 6 20 14 4 10 19 12 60 9 45 -4
54 -2 54 11 0 12 10 16 35 16 19 0 35 5 35 10 0 6 -12 10 -27 10 -19 0 -24 3
-15 9 8 4 13 12 13 17 0 5 23 8 52 7 51 -1 51 -1 12 6 l-40 8 38 2 c23 0 40 7
43 16 4 9 19 15 40 15 24 0 34 5 34 15 0 18 3 17 -38 6 -18 -6 -32 -6 -32 -1
0 5 16 12 35 16 20 3 35 12 35 20 0 8 -1 14 -2 13 -2 -1 -16 -6 -33 -11z m-82
-65 c-7 -2 -19 -2 -25 0 -7 3 -2 5 12 5 14 0 19 -2 13 -5z"/>
<path d="M6695 1500 c-3 -6 1 -7 9 -4 18 7 21 14 7 14 -6 0 -13 -4 -16 -10z"/>
<path d="M4623 1423 c43 -2 110 -2 150 0 40 1 5 3 -78 3 -82 0 -115 -2 -72 -3z"/>
<path d="M6400 1280 c-9 -6 -10 -10 -3 -10 6 0 15 5 18 10 8 12 4 12 -15 0z"/>
<path d="M6010 1089 c0 -5 5 -7 10 -4 6 3 10 8 10 11 0 2 -4 4 -10 4 -5 0 -10
-5 -10 -11z"/>
<path d="M5825 970 c-3 -6 1 -7 9 -4 18 7 21 14 7 14 -6 0 -13 -4 -16 -10z"/>
<path d="M5768 943 c7 -3 16 -2 19 1 4 3 -2 6 -13 5 -11 0 -14 -3 -6 -6z"/>
<path d="M5308 793 c7 -3 16 -2 19 1 4 3 -2 6 -13 5 -11 0 -14 -3 -6 -6z"/>
<path d="M4023 693 c9 -2 23 -2 30 0 6 3 -1 5 -18 5 -16 0 -22 -2 -12 -5z"/>
<path d="M4753 693 c9 -2 23 -2 30 0 6 3 -1 5 -18 5 -16 0 -22 -2 -12 -5z"/>
<path d="M4188 683 c6 -2 18 -2 25 0 6 3 1 5 -13 5 -14 0 -19 -2 -12 -5z"/>
<path d="M4598 683 c7 -3 16 -2 19 1 4 3 -2 6 -13 5 -11 0 -14 -3 -6 -6z"/>
</g>
</svg>
